<svg height="74" viewBox="0 0 84 74" width="84" xmlns="http://www.w3.org/2000/svg"><path d="m74.48 26.437-8.387 11.077 5.625-.198c-.125 12.46-8.205 23.752-20.32 27.72-13.373 4.377-28.058-1.346-34.914-13.609l-6.109 3.416c6.572 11.754 18.947 18.653 31.883 18.653 3.768 0 7.586-.587 11.318-1.809 15.094-4.941 25.117-19.073 25.139-34.618l4.934-.174zm-61.763 10.375c.072-12.51 8.164-23.866 20.322-27.848 13.371-4.378 28.053 1.346 34.912 13.61l6.109-3.416c-8.486-15.179-26.658-22.262-43.199-16.846-15.137 4.956-25.172 19.152-25.141 34.746l-5.369.189 9.17 10.459 8.385-11.077z" fill="#fff"/></svg>