<?xml version="1.0" encoding="UTF-8"?>
<svg width="84px" height="74px" viewBox="0 0 84 74" version="1.1" xmlns="http://www.w3.org/2000/svg" xmlns:xlink="http://www.w3.org/1999/xlink">
    <!-- Generator: Sketch 46.1 (44463) - http://www.bohemiancoding.com/sketch -->
    <title>Shape</title>
    <desc>Created with Sketch.</desc>
    <defs></defs>
    <g id="Page-1" stroke="none" stroke-width="1" fill="none" fill-rule="evenodd">
        <path d="M74.48,26.437 L66.093,37.514 L71.718,37.316 C71.593,49.776 63.513,61.068 51.398,65.036 C38.025,69.413 23.34,63.69 16.484,51.427 L10.375,54.843 C16.947,66.597 29.322,73.496 42.258,73.496 C46.026,73.496 49.844,72.909 53.576,71.687 C68.67,66.746 78.693,52.614 78.715,37.069 L83.649,36.895 L74.48,26.437 Z M12.717,36.812 C12.789,24.302 20.881,12.946 33.039,8.964 C46.41,4.586 61.092,10.31 67.951,22.574 L74.06,19.158 C65.574,3.979 47.402,-3.104 30.861,2.312 C15.724,7.268 5.689,21.464 5.72,37.058 L0.351,37.247 L9.521,47.706 L17.906,36.629 L12.717,36.812 Z" id="Shape" fill="#FFFFFF" fill-rule="nonzero"></path>
    </g>
</svg>